<?xml version="1.0" encoding="UTF-8" standalone="no"?>
<!-- Created with Inkscape (http://www.inkscape.org/) -->

<svg
   xmlns:dc="http://purl.org/dc/elements/1.1/"
   xmlns:cc="http://creativecommons.org/ns#"
   xmlns:rdf="http://www.w3.org/1999/02/22-rdf-syntax-ns#"
   xmlns:svg="http://www.w3.org/2000/svg"
   xmlns="http://www.w3.org/2000/svg"
   xmlns:sodipodi="http://sodipodi.sourceforge.net/DTD/sodipodi-0.dtd"
   xmlns:inkscape="http://www.inkscape.org/namespaces/inkscape"
   width="39.365242mm"
   height="12.747978mm"
   viewBox="0 0 139.48314 45.170001"
   id="svg5479"
   version="1.1"
   inkscape:version="0.91 r13725"
   sodipodi:docname="logoBlueAndGold.svg">
  <defs
     id="defs5481">
    <clipPath
       clipPathUnits="userSpaceOnUse"
       id="clipPath296">
      <path
         d="m 256.632,577.516 111.638,0 0,36.135 -111.638,0 0,-36.135 z"
         id="path298"
         inkscape:connector-curvature="0" />
    </clipPath>
  </defs>
  <sodipodi:namedview
     id="base"
     pagecolor="#ffffff"
     bordercolor="#666666"
     borderopacity="1.0"
     inkscape:pageopacity="0.0"
     inkscape:pageshadow="2"
     inkscape:zoom="7.9195959"
     inkscape:cx="81.525618"
     inkscape:cy="11.144783"
     inkscape:document-units="px"
     inkscape:current-layer="layer1"
     showgrid="false"
     fit-margin-top="0"
     fit-margin-left="0"
     fit-margin-right="0"
     fit-margin-bottom="0"
     inkscape:window-width="1920"
     inkscape:window-height="1017"
     inkscape:window-x="1912"
     inkscape:window-y="-8"
     inkscape:window-maximized="1" />
  <metadata
     id="metadata5484">
    <rdf:RDF>
      <cc:Work
         rdf:about="">
        <dc:format>image/svg+xml</dc:format>
        <dc:type
           rdf:resource="http://purl.org/dc/dcmitype/StillImage" />
        <dc:title></dc:title>
      </cc:Work>
    </rdf:RDF>
  </metadata>
  <g
     inkscape:label="Layer 1"
     inkscape:groupmode="layer"
     id="layer1"
     transform="translate(-305.25843,-509.7772)">
    <g
       id="g238"
       transform="matrix(1.25,0,0,-1.25,308.61533,515.1287)"
       style="fill:#a89968;fill-opacity:1">
      <path
         d="M 0,0 8.662,-4.833 8.822,-4.547 0.203,0.266 0,0 Z"
         style="fill:#a89968;fill-opacity:1;fill-rule:nonzero;stroke:none"
         id="path240"
         inkscape:connector-curvature="0" />
    </g>
    <g
       id="g242"
       transform="matrix(1.25,0,0,-1.25,319.57133,520.7742)"
       style="fill:#a89968;fill-opacity:1">
      <path
         d="M 0,0 0.159,-0.286 9.03,4.656 8.831,4.924 0,0 Z"
         style="fill:#a89968;fill-opacity:1;fill-rule:nonzero;stroke:none"
         id="path244"
         inkscape:connector-curvature="0" />
    </g>
    <path
       d="m 319.36658,521.11845 0.41,0 0,-11.34125 -0.41,0 0,11.34125 z"
       style="fill:#a89968;fill-opacity:1;fill-rule:nonzero;stroke:none"
       id="path246"
       inkscape:connector-curvature="0" />
    <path
       d="m 305.76158,521.24345 28.0075,0 0,-0.41 -28.0075,0 0,0.41 z"
       style="fill:#a89968;fill-opacity:1;fill-rule:nonzero;stroke:none"
       id="path248"
       inkscape:connector-curvature="0" />
    <path
       d="m 305.61408,523.74845 3.2925,0 0,-0.81875 -3.2925,0 0,0.81875 z"
       style="fill:#a89968;fill-opacity:1;fill-rule:nonzero;stroke:none"
       id="path250"
       inkscape:connector-curvature="0" />
    <path
       d="m 313.96033,523.74845 3.2925,0 0,-0.81875 -3.2925,0 0,0.81875 z"
       style="fill:#a89968;fill-opacity:1;fill-rule:nonzero;stroke:none"
       id="path252"
       inkscape:connector-curvature="0" />
    <path
       d="m 322.30658,523.74845 3.2925,0 0,-0.81875 -3.2925,0 0,0.81875 z"
       style="fill:#a89968;fill-opacity:1;fill-rule:nonzero;stroke:none"
       id="path254"
       inkscape:connector-curvature="0" />
    <path
       d="m 330.65283,523.74845 3.29375,0 0,-0.81875 -3.29375,0 0,0.81875 z"
       style="fill:#a89968;fill-opacity:1;fill-rule:nonzero;stroke:none"
       id="path256"
       inkscape:connector-curvature="0" />
    <path
       d="m 305.61408,546.72095 3.2925,0 0,-0.81875 -3.2925,0 0,0.81875 z"
       style="fill:#a89968;fill-opacity:1;fill-rule:nonzero;stroke:none"
       id="path258"
       inkscape:connector-curvature="0" />
    <path
       d="m 313.96033,546.72095 3.2925,0 0,-0.81875 -3.2925,0 0,0.81875 z"
       style="fill:#a89968;fill-opacity:1;fill-rule:nonzero;stroke:none"
       id="path260"
       inkscape:connector-curvature="0" />
    <path
       d="m 322.30658,546.72095 3.2925,0 0,-0.81875 -3.2925,0 0,0.81875 z"
       style="fill:#a89968;fill-opacity:1;fill-rule:nonzero;stroke:none"
       id="path262"
       inkscape:connector-curvature="0" />
    <path
       d="m 330.65283,546.72095 3.29375,0 0,-0.81875 -3.29375,0 0,0.81875 z"
       style="fill:#a89968;fill-opacity:1;fill-rule:nonzero;stroke:none"
       id="path264"
       inkscape:connector-curvature="0" />
    <path
       d="m 313.92283,544.6272 0.97,0 0,-19.5275 -0.97,0 0,19.5275 z"
       style="fill:#a89968;fill-opacity:1;fill-rule:nonzero;stroke:none"
       id="path266"
       inkscape:connector-curvature="0" />
    <path
       d="m 315.75908,544.6272 0.435,0 0,-19.5275 -0.435,0 0,19.5275 z"
       style="fill:#a89968;fill-opacity:1;fill-rule:nonzero;stroke:none"
       id="path268"
       inkscape:connector-curvature="0" />
    <path
       d="m 316.79408,544.6272 0.43375,0 0,-19.5275 -0.43375,0 0,19.5275 z"
       style="fill:#a89968;fill-opacity:1;fill-rule:nonzero;stroke:none"
       id="path270"
       inkscape:connector-curvature="0" />
    <path
       d="m 305.57533,544.6272 0.97125,0 0,-19.5275 -0.97125,0 0,19.5275 z"
       style="fill:#a89968;fill-opacity:1;fill-rule:nonzero;stroke:none"
       id="path272"
       inkscape:connector-curvature="0" />
    <path
       d="m 307.41408,544.6272 0.43375,0 0,-19.5275 -0.43375,0 0,19.5275 z"
       style="fill:#a89968;fill-opacity:1;fill-rule:nonzero;stroke:none"
       id="path274"
       inkscape:connector-curvature="0" />
    <path
       d="m 308.44783,544.6272 0.43375,0 0,-19.5275 -0.43375,0 0,19.5275 z"
       style="fill:#a89968;fill-opacity:1;fill-rule:nonzero;stroke:none"
       id="path276"
       inkscape:connector-curvature="0" />
    <path
       d="m 333.02658,544.6272 0.97,0 0,-19.5275 -0.97,0 0,19.5275 z"
       style="fill:#a89968;fill-opacity:1;fill-rule:nonzero;stroke:none"
       id="path278"
       inkscape:connector-curvature="0" />
    <path
       d="m 331.72408,544.6272 0.435,0 0,-19.5275 -0.435,0 0,19.5275 z"
       style="fill:#a89968;fill-opacity:1;fill-rule:nonzero;stroke:none"
       id="path280"
       inkscape:connector-curvature="0" />
    <path
       d="m 330.69158,544.6272 0.43375,0 0,-19.5275 -0.43375,0 0,19.5275 z"
       style="fill:#a89968;fill-opacity:1;fill-rule:nonzero;stroke:none"
       id="path282"
       inkscape:connector-curvature="0" />
    <path
       d="m 324.68033,544.6272 0.97,0 0,-19.5275 -0.97,0 0,19.5275 z"
       style="fill:#a89968;fill-opacity:1;fill-rule:nonzero;stroke:none"
       id="path284"
       inkscape:connector-curvature="0" />
    <path
       d="m 323.37783,544.6272 0.435,0 0,-19.5275 -0.435,0 0,19.5275 z"
       style="fill:#a89968;fill-opacity:1;fill-rule:nonzero;stroke:none"
       id="path286"
       inkscape:connector-curvature="0" />
    <path
       d="m 322.34533,544.6272 0.43375,0 0,-19.5275 -0.43375,0 0,19.5275 z"
       style="fill:#a89968;fill-opacity:1;fill-rule:nonzero;stroke:none"
       id="path288"
       inkscape:connector-curvature="0" />
    <path
       d="m 305.58408,554.9472 28.57,0 0,-2.41125 -28.57,0 0,2.41125 z"
       style="fill:#a89968;fill-opacity:1;fill-rule:nonzero;stroke:none"
       id="path290"
       inkscape:connector-curvature="0" />
    <g
       id="g300"
       transform="matrix(1.25,0,0,-1.25,334.0797,550.87358)"
       style="fill:#a89968;fill-opacity:1">
      <path
         d="m 0,0 c -0.082,0.204 -0.317,0.304 -0.525,0.232 -0.01,-0.005 -0.889,-0.283 -3.421,0.754 1.817,-0.221 3.476,-0.108 3.577,-0.1 0.135,0.01 0.237,0.128 0.228,0.263 -0.01,0.135 -0.128,0.237 -0.264,0.227 -0.033,-0.003 -3.16,-0.215 -5.476,0.506 -1.435,0.714 -2.715,0.843 -3.803,0.374 -0.908,-0.392 -1.486,-1.115 -1.83,-1.708 -0.343,0.593 -0.921,1.316 -1.829,1.708 -1.078,0.464 -2.344,0.341 -3.763,-0.355 -2.321,-0.743 -5.497,-0.528 -5.531,-0.525 -0.135,0.01 -0.252,-0.092 -0.262,-0.227 -0.01,-0.135 0.092,-0.253 0.227,-0.263 0.101,-0.008 1.771,-0.121 3.596,0.102 -2.535,-1.039 -3.416,-0.761 -3.426,-0.756 -0.207,0.072 -0.443,-0.028 -0.524,-0.232 -0.082,-0.204 0.003,-0.432 0.203,-0.523 0.151,-0.067 1.595,-0.597 5.97,1.638 1.238,0.632 2.307,0.763 3.18,0.391 1.057,-0.452 1.566,-1.528 1.731,-1.949 -0.033,-0.201 0.081,-0.399 0.281,-0.459 l 0.122,-0.01 0.025,-0.002 0.026,0.002 0.122,0.01 c 0.2,0.06 0.314,0.258 0.281,0.459 0.165,0.421 0.674,1.497 1.731,1.949 0.872,0.372 1.942,0.241 3.181,-0.391 C -1.8,-1.12 -0.354,-0.59 -0.204,-0.523 -0.004,-0.432 0.081,-0.204 0,0"
         style="fill:#a89968;fill-opacity:1;fill-rule:nonzero;stroke:none"
         id="path302"
         inkscape:connector-curvature="0" />
    </g>
    <g
       id="g304"
       transform="matrix(1.25,0,0,-1.25,322.6282,520.37207)"
       style="fill:#a89968;fill-opacity:1">
      <path
         d="M 0,0 8.936,0 C 8.53,1.43 7.858,2.745 6.976,3.894 L 0,0"
         style="fill:#a89968;fill-opacity:1;fill-rule:nonzero;stroke:none"
         id="path306"
         inkscape:connector-curvature="0" />
    </g>
    <g
       id="g308"
       transform="matrix(1.25,0,0,-1.25,305.78082,520.37207)"
       style="fill:#a89968;fill-opacity:1">
      <path
         d="M 0,0 8.588,0 1.858,3.757 C 1.027,2.64 0.39,1.374 0,0"
         style="fill:#a89968;fill-opacity:1;fill-rule:nonzero;stroke:none"
         id="path310"
         inkscape:connector-curvature="0" />
    </g>
    <g
       id="g312"
       transform="matrix(1.25,0,0,-1.25,320.49395,519.45258)"
       style="fill:#a89968;fill-opacity:1">
      <path
         d="M 0,0 7.7,4.299 C 5.713,6.295 3.004,7.562 0,7.706 L 0,0"
         style="fill:#a89968;fill-opacity:1;fill-rule:nonzero;stroke:none"
         id="path314"
         inkscape:connector-curvature="0" />
    </g>
    <g
       id="g316"
       transform="matrix(1.25,0,0,-1.25,318.65082,519.45258)"
       style="fill:#a89968;fill-opacity:1">
      <path
         d="M 0,0 0,7.688 C -2.926,7.461 -5.547,6.159 -7.47,4.169 L 0,0"
         style="fill:#a89968;fill-opacity:1;fill-rule:nonzero;stroke:none"
         id="path318"
         inkscape:connector-curvature="0" />
    </g>
    <g
       id="g320"
       transform="matrix(1.25,0,0,-1.25,434.46745,512.82983)"
       style="fill:#002855;fill-opacity:1">
      <path
         d="m 0,0 c 0.387,-0.436 1.758,-1.964 3.164,-3.479 1.285,-1.383 3.031,-3.165 3.165,-3.286 0.642,-0.642 0.788,-0.776 0.884,-0.776 0.086,0 0.109,0.06 0.109,0.861 l 0.025,7.104 c 0,0.728 0.048,0.994 0.448,1.079 0.146,0.036 0.231,0.036 0.291,0.036 0.086,0 0.134,0.037 0.134,0.085 0,0.073 -0.085,0.085 -0.218,0.085 -0.497,0 -0.897,-0.036 -1.031,-0.036 -0.133,0 -0.715,0.036 -1.26,0.036 -0.147,0 -0.243,-0.012 -0.243,-0.085 0,-0.048 0.012,-0.085 0.096,-0.085 0.098,0 0.376,-0.012 0.595,-0.06 C 6.535,1.382 6.62,1.115 6.632,0.327 l 0.133,-6.159 c -0.388,0.401 -1.709,1.879 -2.91,3.165 -1.867,2 -3.674,3.952 -3.855,4.158 -0.122,0.121 -0.327,0.388 -0.425,0.388 -0.097,0 -0.133,-0.134 -0.133,-0.606 L -0.57,-5.674 c 0,-1.103 -0.061,-1.455 -0.364,-1.54 -0.181,-0.061 -0.4,-0.072 -0.497,-0.072 l -0.096,-0.073 c 0,-0.085 0.072,-0.097 0.193,-0.097 0.547,0 1.056,0.036 1.164,0.036 0.109,0 0.595,-0.036 1.286,-0.036 0.144,0 0.218,0.024 0.218,0.097 l -0.097,0.073 c -0.11,0 -0.376,0.011 -0.606,0.072 -0.328,0.097 -0.45,0.413 -0.473,1.406 L 0,0 m -10.469,-2.522 c 0,2.656 1.516,3.989 3.541,3.989 1.915,0 3.686,-1.564 3.686,-4.474 0,-3.528 -2.255,-4.158 -3.347,-4.158 -2.182,0 -3.88,1.818 -3.88,4.643 m -1.151,-0.339 c 0,-2.183 1.382,-4.765 4.704,-4.765 2.921,0 4.837,2.243 4.837,4.959 0,2.824 -2.036,4.546 -4.764,4.546 -3.347,0 -4.777,-2.776 -4.777,-4.74 m -3.371,4.049 1.527,-0.024 c 1.164,-0.025 1.443,-0.303 1.491,-0.667 l 0.013,-0.133 c 0.011,-0.17 0.036,-0.207 0.097,-0.207 0.048,0 0.084,0.049 0.084,0.158 0,0.133 0.037,0.97 0.037,1.334 l -0.06,0.145 c -0.05,0 -0.158,-0.024 -0.34,-0.06 -0.194,-0.025 -0.473,-0.061 -0.861,-0.061 l -4.546,0 c -0.146,0 -0.607,0.024 -0.958,0.061 -0.327,0.024 -0.449,0.145 -0.533,0.145 l -0.122,-0.23 c -0.024,-0.097 -0.267,-1.14 -0.267,-1.261 0,-0.073 0.025,-0.109 0.061,-0.109 0.048,0 0.085,0.024 0.121,0.121 0.037,0.085 0.073,0.17 0.207,0.376 0.193,0.291 0.484,0.376 1.236,0.388 l 1.794,0.024 0,-5.129 c 0,-1.163 0,-2.121 -0.06,-2.63 -0.049,-0.352 -0.109,-0.618 -0.352,-0.667 -0.109,-0.024 -0.254,-0.048 -0.363,-0.048 l -0.097,-0.073 c 0,-0.073 0.06,-0.097 0.193,-0.097 0.364,0 1.128,0.036 1.189,0.036 0.06,0 0.824,-0.036 1.491,-0.036 0.133,0 0.194,0.036 0.194,0.097 l -0.097,0.073 c -0.109,0 -0.376,0.024 -0.546,0.048 -0.363,0.049 -0.436,0.315 -0.472,0.667 -0.061,0.509 -0.061,1.467 -0.061,2.63 l 0,5.129 z m -7.889,-8.814 c 0.654,0 1.308,0.145 1.83,0.509 0.837,0.594 1.031,1.516 1.031,2.013 0,0.97 -0.34,1.722 -1.77,2.849 l -0.34,0.266 c -1.139,0.934 -1.479,1.346 -1.479,2.037 0,0.886 0.654,1.407 1.491,1.407 1.116,0 1.443,-0.509 1.516,-0.643 0.072,-0.133 0.146,-0.46 0.158,-0.606 0.011,-0.097 0.024,-0.158 0.096,-0.158 0.061,0 0.085,0.086 0.085,0.279 0,0.825 0.049,1.225 0.049,1.285 0,0.061 -0.025,0.085 -0.122,0.085 -0.097,0 -0.194,0.012 -0.424,0.061 -0.303,0.072 -0.654,0.121 -1.128,0.121 -1.54,0 -2.508,-0.885 -2.508,-2.182 0,-0.825 0.29,-1.576 1.575,-2.631 l 0.546,-0.448 c 1.043,-0.862 1.394,-1.346 1.394,-2.183 0,-0.776 -0.57,-1.612 -1.734,-1.612 -0.813,0 -1.612,0.339 -1.794,1.236 -0.036,0.17 -0.036,0.34 -0.036,0.449 0,0.097 -0.012,0.133 -0.085,0.133 -0.061,0 -0.085,-0.06 -0.097,-0.194 -0.013,-0.194 -0.061,-0.679 -0.061,-1.285 0,-0.327 0.012,-0.376 0.182,-0.461 0.497,-0.242 1.055,-0.327 1.625,-0.327 m -7.209,3.685 c 0,-1.163 0,-2.121 -0.06,-2.63 -0.05,-0.352 -0.111,-0.618 -0.352,-0.667 -0.11,-0.024 -0.255,-0.048 -0.365,-0.048 l -0.096,-0.073 c 0,-0.073 0.06,-0.097 0.194,-0.097 0.182,0 0.461,0.012 0.702,0.024 0.256,0 0.462,0.012 0.486,0.012 0.352,0 1.164,-0.072 2.995,-0.072 0.473,0 0.569,0 0.654,0.315 0.061,0.254 0.158,1.079 0.158,1.175 0,0.085 0,0.182 -0.072,0.182 -0.061,0 -0.086,-0.048 -0.11,-0.182 -0.085,-0.496 -0.231,-0.739 -0.546,-0.872 -0.315,-0.134 -0.848,-0.134 -1.163,-0.134 -1.189,0 -1.37,0.158 -1.407,0.994 -0.012,0.255 0,1.662 0,2.073 l 0,1.068 0.085,0.084 c 0.206,0 1.406,-0.024 1.734,-0.06 0.473,-0.049 0.582,-0.255 0.63,-0.424 0.049,-0.158 0.049,-0.279 0.049,-0.401 l 0.084,-0.109 c 0.085,0 0.085,0.134 0.085,0.231 0,0.085 0.025,0.533 0.049,0.776 0.036,0.399 0.097,0.606 0.097,0.679 l -0.061,0.096 c -0.048,0 -0.097,-0.06 -0.182,-0.157 -0.108,-0.121 -0.278,-0.146 -0.569,-0.17 -0.279,-0.024 -1.77,-0.024 -1.928,-0.024 -0.061,0 -0.073,0.036 -0.073,0.121 l 0,3.346 c 0,0.085 0.024,0.121 0.073,0.121 0.133,0 1.455,-0.012 1.661,-0.036 0.655,-0.072 0.775,-0.218 0.861,-0.413 0.06,-0.144 0.072,-0.35 0.072,-0.435 0,-0.097 0.025,-0.158 0.098,-0.158 l 0.084,0.133 c 0.025,0.146 0.049,0.679 0.061,0.801 0.036,0.339 0.096,0.484 0.096,0.569 l -0.047,0.109 -0.17,-0.061 c -0.097,-0.024 -0.291,-0.048 -0.522,-0.06 -0.278,-0.012 -2.691,-0.012 -2.776,-0.012 -0.06,0 -0.825,0.036 -1.37,0.036 -0.133,0 -0.194,-0.024 -0.194,-0.097 l 0.097,-0.073 c 0.109,0 0.315,-0.012 0.412,-0.036 0.4,-0.085 0.498,-0.279 0.522,-0.691 0.024,-0.388 0.024,-0.727 0.024,-2.619 l 0,-2.134 z m -5.299,2.134 c 0,1.892 0,2.231 0.025,2.619 0.023,0.424 0.12,0.631 0.472,0.691 0.145,0.024 0.315,0.036 0.4,0.036 l 0.097,0.073 c 0,0.073 -0.06,0.097 -0.194,0.097 -0.364,0 -1.249,-0.036 -1.309,-0.036 -0.061,0 -0.825,0.036 -1.37,0.036 -0.134,0 -0.195,-0.024 -0.195,-0.097 l 0.097,-0.073 c 0.11,0 0.315,-0.012 0.412,-0.036 0.401,-0.085 0.498,-0.279 0.522,-0.691 0.024,-0.388 0.024,-0.727 0.024,-2.619 l 0,-2.134 c 0,-1.163 0,-2.121 -0.06,-2.63 -0.049,-0.352 -0.11,-0.618 -0.352,-0.667 -0.109,-0.024 -0.255,-0.048 -0.364,-0.048 l -0.097,-0.073 c 0,-0.073 0.061,-0.097 0.194,-0.097 0.182,0 0.449,0.012 0.691,0.024 0.243,0 0.449,0.012 0.498,0.012 0.703,0 1.503,-0.072 3.249,-0.072 0.643,0 0.679,0.048 0.764,0.327 0.096,0.351 0.182,1.079 0.182,1.212 0,0.133 -0.013,0.182 -0.074,0.182 -0.072,0 -0.096,-0.061 -0.108,-0.158 -0.037,-0.23 -0.158,-0.533 -0.315,-0.727 -0.292,-0.352 -0.825,-0.364 -1.468,-0.364 -0.945,0 -1.26,0.085 -1.455,0.279 -0.218,0.218 -0.266,0.994 -0.266,2.776 l 0,2.158 z m -9.148,2.91 c 0,0.073 0.037,0.121 0.097,0.146 0.122,0.036 0.449,0.072 0.813,0.072 1.296,0 2.097,-0.909 2.097,-2.424 0,-0.922 -0.316,-1.577 -0.74,-1.867 -0.278,-0.194 -0.618,-0.231 -0.909,-0.231 -0.533,0 -1.091,0.085 -1.273,0.194 l -0.085,0.146 0,3.964 z m -0.97,-5.044 c 0,-1.163 0,-2.121 -0.06,-2.63 -0.048,-0.352 -0.109,-0.618 -0.351,-0.667 -0.11,-0.024 -0.255,-0.048 -0.364,-0.048 l -0.097,-0.073 c 0,-0.073 0.061,-0.097 0.194,-0.097 0.363,0 1.127,0.036 1.139,0.036 0.06,0 0.825,-0.036 1.491,-0.036 0.134,0 0.194,0.036 0.194,0.097 l -0.097,0.073 c -0.109,0 -0.376,0.024 -0.546,0.048 -0.363,0.049 -0.436,0.315 -0.472,0.667 -0.061,0.509 -0.061,1.467 -0.061,2.63 l 0,0.292 0.085,0.097 1.491,-0.025 0.158,-0.072 c 0.242,-0.316 0.812,-1.128 1.321,-1.795 0.692,-0.909 1.115,-1.503 1.637,-1.782 0.315,-0.169 0.618,-0.23 1.297,-0.23 l 0.861,0 c 0.219,0 0.291,0.024 0.291,0.097 l -0.109,0.073 c -0.073,0 -0.243,0 -0.474,0.036 -0.302,0.049 -0.823,0.182 -1.478,0.873 -0.703,0.751 -1.528,1.83 -2.521,3.104 1.09,1.006 1.466,1.903 1.466,2.8 0,0.837 -0.533,1.431 -0.837,1.649 -0.642,0.461 -1.454,0.533 -2.218,0.533 -0.376,0 -1.297,-0.036 -1.431,-0.036 -0.06,0 -0.824,0.036 -1.369,0.036 -0.134,0 -0.195,-0.024 -0.195,-0.097 l 0.097,-0.073 c 0.11,0 0.316,-0.012 0.413,-0.036 0.4,-0.085 0.497,-0.279 0.521,-0.691 0.024,-0.388 0.024,-0.727 0.024,-2.619 l 0,-2.134 z m -7.4,0.498 -0.036,0.085 1.067,3.273 c 0.06,0.182 0.121,0.182 0.181,0 l 1.152,-3.273 -0.048,-0.085 -2.316,0 z m -1.697,-2.68 c -0.218,-0.606 -0.461,-1.066 -1.018,-1.139 -0.097,-0.013 -0.267,-0.024 -0.352,-0.024 l -0.109,-0.073 c 0,-0.073 0.073,-0.097 0.23,-0.097 0.57,0 1.237,0.036 1.37,0.036 0.134,0 0.655,-0.036 0.946,-0.036 0.109,0 0.182,0.024 0.182,0.097 0,0.048 -0.037,0.073 -0.122,0.073 l -0.121,0 c -0.206,0 -0.46,0.109 -0.46,0.351 0,0.219 0.06,0.509 0.169,0.812 l 0.728,2.146 0.121,0.097 2.607,0 0.109,-0.073 1.127,-2.982 c 0.073,-0.194 0,-0.303 -0.073,-0.327 l -0.085,-0.085 c 0,-0.073 0.134,-0.073 0.364,-0.085 0.837,-0.024 1.722,-0.024 1.904,-0.024 0.133,0 0.242,0.024 0.242,0.097 0,0.06 -0.048,0.073 -0.121,0.073 -0.121,0 -0.303,0.011 -0.485,0.072 -0.255,0.073 -0.606,0.267 -1.043,1.346 -0.739,1.843 -2.643,6.85 -2.825,7.311 -0.145,0.376 -0.193,0.436 -0.266,0.436 -0.073,0 -0.122,-0.073 -0.267,-0.473 l -2.752,-7.529 z m -3.018,4.316 c 0,1.892 0,2.231 0.025,2.619 0.024,0.424 0.121,0.631 0.449,0.691 0.145,0.024 0.217,0.036 0.303,0.036 l 0.096,0.073 c 0,0.073 -0.06,0.097 -0.193,0.097 -0.364,0 -1.128,-0.036 -1.189,-0.036 -0.06,0 -0.824,0.036 -1.37,0.036 -0.133,0 -0.194,-0.024 -0.194,-0.097 l 0.097,-0.073 c 0.109,0 0.316,-0.012 0.412,-0.036 0.401,-0.085 0.498,-0.279 0.522,-0.691 0.024,-0.388 0.024,-0.727 0.024,-2.619 l 0,-0.254 -0.073,-0.073 -5.14,0 -0.073,0.073 0,0.254 c 0,1.892 0,2.231 0.024,2.619 0.025,0.424 0.122,0.631 0.449,0.691 0.145,0.024 0.218,0.036 0.303,0.036 l 0.097,0.073 c 0,0.073 -0.061,0.097 -0.194,0.097 -0.363,0 -1.128,-0.036 -1.188,-0.036 -0.06,0 -0.824,0.036 -1.37,0.036 -0.134,0 -0.194,-0.024 -0.194,-0.097 l 0.097,-0.073 c 0.109,0 0.315,-0.012 0.412,-0.036 0.4,-0.085 0.497,-0.279 0.522,-0.691 0.024,-0.388 0.024,-0.727 0.024,-2.619 l 0,-2.134 c 0,-1.163 0,-2.121 -0.061,-2.63 -0.048,-0.352 -0.109,-0.618 -0.351,-0.667 -0.11,-0.024 -0.255,-0.048 -0.364,-0.048 l -0.097,-0.073 c 0,-0.073 0.06,-0.097 0.194,-0.097 0.364,0 1.128,0.036 1.188,0.036 0.06,0 0.825,-0.036 1.491,-0.036 0.134,0 0.194,0.036 0.194,0.097 l -0.097,0.073 c -0.109,0 -0.375,0.024 -0.545,0.048 -0.364,0.049 -0.437,0.315 -0.473,0.667 -0.061,0.509 -0.061,1.467 -0.061,2.63 l 0,1.274 0.073,0.072 5.14,0 0.073,-0.072 0,-1.274 c 0,-1.163 0,-2.121 -0.061,-2.63 -0.048,-0.352 -0.109,-0.618 -0.351,-0.667 -0.109,-0.024 -0.255,-0.048 -0.364,-0.048 l -0.097,-0.073 c 0,-0.073 0.061,-0.097 0.194,-0.097 0.364,0 1.128,0.036 1.188,0.036 0.061,0 0.825,-0.036 1.492,-0.036 0.133,0 0.193,0.036 0.193,0.097 0,0.036 -0.024,0.073 -0.096,0.073 -0.11,0 -0.377,0.024 -0.546,0.048 -0.364,0.049 -0.437,0.315 -0.473,0.667 -0.061,0.509 -0.061,1.467 -0.061,2.63 l 0,2.134 z m -12.088,-5.819 c 0.776,0 1.698,0.085 2.182,0.279 0.218,0.097 0.243,0.121 0.316,0.352 0.121,0.412 0.266,1.466 0.266,1.551 0,0.097 -0.024,0.182 -0.085,0.182 -0.072,0 -0.096,-0.048 -0.121,-0.182 -0.036,-0.218 -0.194,-0.751 -0.448,-1.018 -0.485,-0.497 -1.201,-0.606 -2.11,-0.606 -2.594,0 -4.377,2.121 -4.377,4.437 0,1.237 0.206,2.316 1.092,3.164 0.424,0.413 1.175,0.885 2.788,0.885 1.067,0 2,-0.327 2.425,-0.691 0.315,-0.266 0.509,-0.764 0.509,-1.237 0,-0.169 0.012,-0.254 0.097,-0.254 0.073,0 0.097,0.073 0.109,0.254 0.012,0.182 0.012,0.849 0.036,1.25 0.025,0.436 0.061,0.581 0.061,0.678 0,0.073 -0.024,0.121 -0.157,0.134 -0.388,0.024 -0.776,0.097 -1.237,0.182 -0.594,0.109 -1.273,0.145 -1.758,0.145 -1.867,0 -2.97,-0.57 -3.698,-1.297 -1.079,-1.079 -1.358,-2.497 -1.358,-3.31 0,-1.152 0.291,-2.534 1.467,-3.589 0.958,-0.86 2.183,-1.309 4.001,-1.309"
         style="fill:#002855;fill-opacity:1;fill-rule:nonzero;stroke:none"
         id="path322"
         inkscape:connector-curvature="0" />
    </g>
    <g
       id="g324"
       transform="matrix(1.25,0,0,-1.25,416.71195,528.99508)"
       style="fill:#002855;fill-opacity:1">
      <path
         d="m 0,0 c 0.389,-0.436 1.758,-1.964 3.164,-3.479 1.285,-1.383 3.031,-3.165 3.165,-3.286 0.642,-0.642 0.788,-0.776 0.885,-0.776 0.085,0 0.11,0.061 0.11,0.861 l 0.023,7.105 c 0,0.727 0.049,0.993 0.449,1.079 0.145,0.036 0.23,0.036 0.291,0.036 0.085,0 0.133,0.036 0.133,0.085 0,0.073 -0.084,0.084 -0.218,0.084 -0.497,0 -0.897,-0.036 -1.031,-0.036 -0.133,0 -0.715,0.036 -1.26,0.036 C 5.565,1.709 5.469,1.698 5.469,1.625 5.469,1.576 5.48,1.54 5.565,1.54 5.662,1.54 5.941,1.528 6.159,1.479 6.535,1.383 6.62,1.116 6.632,0.328 l 0.133,-6.16 c -0.387,0.401 -1.709,1.88 -2.909,3.165 -1.867,2 -3.673,3.952 -3.856,4.158 -0.121,0.121 -0.327,0.388 -0.424,0.388 -0.097,0 -0.133,-0.133 -0.133,-0.606 L -0.57,-5.674 c 0,-1.103 -0.06,-1.455 -0.363,-1.539 -0.182,-0.061 -0.4,-0.073 -0.497,-0.073 l -0.097,-0.073 c 0,-0.085 0.073,-0.097 0.194,-0.097 0.546,0 1.055,0.037 1.164,0.037 0.109,0 0.594,-0.037 1.285,-0.037 0.146,0 0.218,0.024 0.218,0.097 l -0.097,0.073 c -0.109,0 -0.376,0.012 -0.606,0.073 -0.327,0.096 -0.448,0.412 -0.473,1.406 L 0,0 m -8.542,1.103 c 0,0.073 0.037,0.121 0.097,0.146 0.121,0.036 0.449,0.073 0.813,0.073 1.296,0 2.097,-0.91 2.097,-2.425 0,-0.922 -0.316,-1.576 -0.74,-1.867 -0.279,-0.194 -0.618,-0.231 -0.909,-0.231 -0.534,0 -1.092,0.085 -1.273,0.195 l -0.085,0.145 0,3.964 z m -0.97,-5.043 c 0,-1.164 0,-2.122 -0.061,-2.631 -0.048,-0.352 -0.108,-0.618 -0.351,-0.667 -0.109,-0.024 -0.254,-0.048 -0.364,-0.048 l -0.097,-0.073 c 0,-0.073 0.061,-0.097 0.195,-0.097 0.363,0 1.126,0.037 1.138,0.037 0.061,0 0.825,-0.037 1.493,-0.037 0.133,0 0.192,0.037 0.192,0.097 l -0.096,0.073 c -0.109,0 -0.376,0.024 -0.546,0.048 -0.363,0.049 -0.436,0.315 -0.473,0.667 -0.06,0.509 -0.06,1.467 -0.06,2.631 l 0,0.291 0.085,0.097 1.491,-0.024 0.158,-0.073 c 0.242,-0.315 0.812,-1.127 1.321,-1.794 0.691,-0.91 1.115,-1.504 1.637,-1.783 0.315,-0.169 0.618,-0.23 1.297,-0.23 l 0.861,0 c 0.218,0 0.291,0.024 0.291,0.097 l -0.11,0.073 c -0.072,0 -0.242,0 -0.472,0.036 -0.303,0.049 -0.824,0.182 -1.479,0.873 -0.703,0.751 -1.527,1.831 -2.522,3.104 1.091,1.006 1.467,1.903 1.467,2.8 0,0.837 -0.534,1.431 -0.836,1.649 -0.643,0.461 -1.455,0.533 -2.219,0.533 -0.376,0 -1.297,-0.036 -1.43,-0.036 -0.062,0 -0.825,0.036 -1.371,0.036 -0.133,0 -0.194,-0.023 -0.194,-0.097 L -10.47,1.54 c 0.11,0 0.316,-0.012 0.413,-0.036 0.399,-0.086 0.496,-0.28 0.521,-0.692 0.024,-0.387 0.024,-0.727 0.024,-2.619 l 0,-2.133 z m -6.274,0 c 0,-1.164 0,-2.122 -0.06,-2.631 -0.049,-0.352 -0.109,-0.618 -0.352,-0.667 -0.109,-0.024 -0.254,-0.048 -0.364,-0.048 l -0.096,-0.073 c 0,-0.073 0.06,-0.097 0.194,-0.097 0.182,0 0.46,0.012 0.703,0.024 0.255,0 0.461,0.013 0.485,0.013 0.351,0 1.163,-0.073 2.994,-0.073 0.473,0 0.57,0 0.655,0.315 0.061,0.254 0.158,1.079 0.158,1.176 0,0.085 0,0.182 -0.073,0.182 -0.06,0 -0.085,-0.049 -0.109,-0.182 -0.085,-0.497 -0.231,-0.74 -0.546,-0.873 -0.315,-0.133 -0.848,-0.133 -1.164,-0.133 -1.188,0 -1.369,0.157 -1.406,0.993 -0.013,0.255 0,1.662 0,2.074 l 0,1.067 0.085,0.085 c 0.205,0 1.406,-0.025 1.734,-0.061 0.473,-0.049 0.582,-0.255 0.629,-0.424 0.05,-0.158 0.05,-0.279 0.05,-0.4 l 0.084,-0.109 c 0.085,0 0.085,0.133 0.085,0.23 0,0.085 0.025,0.533 0.048,0.776 0.037,0.4 0.098,0.606 0.098,0.679 L -12.015,-2 c -0.048,0 -0.097,-0.061 -0.182,-0.158 -0.109,-0.121 -0.278,-0.145 -0.57,-0.169 -0.278,-0.025 -1.769,-0.025 -1.927,-0.025 -0.061,0 -0.073,0.036 -0.073,0.121 l 0,3.347 c 0,0.084 0.024,0.121 0.073,0.121 0.134,0 1.455,-0.013 1.661,-0.037 0.655,-0.072 0.775,-0.218 0.861,-0.412 0.06,-0.145 0.072,-0.352 0.072,-0.436 0,-0.097 0.025,-0.158 0.097,-0.158 l 0.085,0.134 c 0.024,0.145 0.049,0.678 0.06,0.8 0.037,0.339 0.098,0.484 0.098,0.57 l -0.049,0.109 -0.17,-0.061 c -0.096,-0.024 -0.29,-0.048 -0.521,-0.06 -0.278,-0.013 -2.691,-0.013 -2.776,-0.013 -0.061,0 -0.825,0.036 -1.37,0.036 -0.133,0 -0.194,-0.023 -0.194,-0.097 l 0.096,-0.072 c 0.11,0 0.316,-0.012 0.413,-0.036 0.4,-0.086 0.497,-0.28 0.521,-0.692 0.024,-0.387 0.024,-0.727 0.024,-2.619 l 0,-2.133 z m -3.213,2.133 c 0,1.892 0,2.232 0.025,2.619 0.024,0.425 0.12,0.631 0.448,0.692 0.145,0.024 0.218,0.036 0.303,0.036 l 0.097,0.072 c 0,0.074 -0.061,0.097 -0.194,0.097 -0.364,0 -1.127,-0.036 -1.188,-0.036 -0.061,0 -0.825,0.036 -1.37,0.036 -0.134,0 -0.194,-0.023 -0.194,-0.097 l 0.097,-0.072 c 0.109,0 0.315,-0.012 0.412,-0.036 0.4,-0.086 0.497,-0.28 0.521,-0.692 0.025,-0.387 0.025,-0.727 0.025,-2.619 l 0,-0.254 -0.073,-0.072 -5.141,0 -0.073,0.072 0,0.254 c 0,1.892 0,2.232 0.025,2.619 0.024,0.425 0.121,0.631 0.448,0.692 0.146,0.024 0.218,0.036 0.303,0.036 l 0.097,0.072 c 0,0.074 -0.061,0.097 -0.194,0.097 -0.363,0 -1.127,-0.036 -1.188,-0.036 -0.061,0 -0.825,0.036 -1.37,0.036 -0.133,0 -0.194,-0.023 -0.194,-0.097 l 0.096,-0.072 c 0.11,0 0.317,-0.012 0.414,-0.036 0.4,-0.086 0.496,-0.28 0.52,-0.692 0.025,-0.387 0.025,-0.727 0.025,-2.619 l 0,-2.133 c 0,-1.164 0,-2.122 -0.061,-2.631 -0.048,-0.352 -0.109,-0.618 -0.351,-0.667 -0.11,-0.024 -0.255,-0.048 -0.364,-0.048 l -0.097,-0.073 c 0,-0.073 0.061,-0.097 0.194,-0.097 0.363,0 1.127,0.037 1.188,0.037 0.061,0 0.825,-0.037 1.491,-0.037 0.133,0 0.194,0.037 0.194,0.097 l -0.097,0.073 c -0.109,0 -0.376,0.024 -0.545,0.048 -0.364,0.049 -0.437,0.315 -0.473,0.667 -0.061,0.509 -0.061,1.467 -0.061,2.631 l 0,1.273 0.073,0.073 5.141,0 0.073,-0.073 0,-1.273 c 0,-1.164 0,-2.122 -0.061,-2.631 -0.048,-0.352 -0.109,-0.618 -0.351,-0.667 -0.11,-0.024 -0.255,-0.048 -0.364,-0.048 l -0.097,-0.073 c 0,-0.073 0.061,-0.097 0.194,-0.097 0.363,0 1.127,0.037 1.188,0.037 0.061,0 0.824,-0.037 1.491,-0.037 0.133,0 0.194,0.037 0.194,0.097 0,0.037 -0.025,0.073 -0.097,0.073 -0.109,0 -0.376,0.024 -0.546,0.048 -0.364,0.049 -0.436,0.315 -0.472,0.667 -0.061,0.509 -0.061,1.467 -0.061,2.631 l 0,2.133 z m -12.412,2.995 1.528,-0.024 c 1.164,-0.024 1.443,-0.303 1.491,-0.667 l 0.012,-0.133 c 0.013,-0.17 0.036,-0.206 0.097,-0.206 0.049,0 0.086,0.048 0.086,0.157 0,0.134 0.036,0.97 0.036,1.334 l -0.061,0.146 c -0.048,0 -0.158,-0.025 -0.339,-0.062 -0.194,-0.024 -0.473,-0.06 -0.862,-0.06 l -4.546,0 c -0.145,0 -0.605,0.025 -0.957,0.06 -0.328,0.025 -0.449,0.146 -0.534,0.146 l -0.121,-0.23 c -0.024,-0.097 -0.267,-1.139 -0.267,-1.261 0,-0.073 0.024,-0.109 0.061,-0.109 0.049,0 0.085,0.024 0.121,0.121 0.037,0.085 0.073,0.17 0.206,0.376 0.194,0.291 0.485,0.376 1.237,0.388 l 1.794,0.024 0,-5.128 c 0,-1.164 0,-2.122 -0.061,-2.631 -0.048,-0.352 -0.108,-0.618 -0.351,-0.667 -0.109,-0.024 -0.254,-0.048 -0.364,-0.048 l -0.097,-0.073 c 0,-0.073 0.061,-0.097 0.194,-0.097 0.364,0 1.127,0.037 1.188,0.037 0.061,0 0.825,-0.037 1.492,-0.037 0.132,0 0.194,0.037 0.194,0.097 l -0.098,0.073 c -0.108,0 -0.376,0.024 -0.545,0.048 -0.364,0.049 -0.437,0.315 -0.473,0.667 -0.061,0.509 -0.061,1.467 -0.061,2.631 l 0,5.128 z m -12.836,-4.764 c 0,-1.77 0.461,-2.619 1.055,-3.189 0.861,-0.812 2.085,-0.86 2.497,-0.86 0.716,0 1.625,0.121 2.498,0.896 0.97,0.861 1.115,2.316 1.115,3.625 l 0,1.297 c 0,1.892 0,2.232 0.025,2.619 0.024,0.425 0.121,0.631 0.448,0.692 0.146,0.036 0.218,0.036 0.303,0.036 l 0.097,0.072 c 0,0.074 -0.06,0.097 -0.194,0.097 -0.363,0 -0.933,-0.036 -1.018,-0.036 -0.073,0 -0.74,0.036 -1.285,0.036 -0.133,0 -0.194,-0.023 -0.194,-0.097 l 0.097,-0.072 c 0.109,0 0.315,-0.012 0.412,-0.036 0.4,-0.086 0.497,-0.28 0.521,-0.692 0.025,-0.387 0.025,-0.727 0.025,-2.619 l 0,-1.515 c 0,-1.249 -0.146,-2.279 -0.704,-2.97 -0.436,-0.521 -1.163,-0.873 -1.903,-0.873 -0.691,0 -1.237,0.109 -1.83,0.667 -0.522,0.497 -0.91,1.249 -0.91,2.994 l 0,1.697 c 0,1.892 0,2.232 0.024,2.619 0.024,0.425 0.122,0.643 0.449,0.692 0.145,0.024 0.218,0.036 0.303,0.036 l 0.097,0.072 c 0,0.074 -0.061,0.097 -0.194,0.097 -0.364,0 -1.091,-0.036 -1.2,-0.036 -0.109,0 -0.849,0.036 -1.394,0.036 -0.134,0 -0.195,-0.023 -0.195,-0.097 l 0.097,-0.072 c 0.11,0 0.316,-0.012 0.413,-0.036 0.4,-0.086 0.497,-0.28 0.521,-0.692 0.024,-0.387 0.024,-0.727 0.024,-2.619 l 0,-1.769 z m -9.663,1.054 c 0,2.655 1.515,3.989 3.54,3.989 1.915,0 3.685,-1.564 3.685,-4.473 0,-3.529 -2.255,-4.159 -3.346,-4.159 -2.182,0 -3.879,1.819 -3.879,4.643 m -1.152,-0.339 c 0,-2.182 1.382,-4.764 4.704,-4.764 2.922,0 4.837,2.242 4.837,4.958 0,2.825 -2.037,4.546 -4.765,4.546 -3.346,0 -4.776,-2.776 -4.776,-4.74 m -3.68,-4.764 c 0.655,0 1.31,0.145 1.831,0.508 0.837,0.594 1.031,1.516 1.031,2.013 0,0.97 -0.34,1.722 -1.771,2.849 l -0.339,0.267 c -1.14,0.933 -1.479,1.345 -1.479,2.037 0,0.885 0.655,1.406 1.491,1.406 1.116,0 1.443,-0.509 1.516,-0.643 0.072,-0.133 0.145,-0.46 0.157,-0.606 0.012,-0.097 0.025,-0.157 0.097,-0.157 0.061,0 0.085,0.084 0.085,0.279 0,0.824 0.049,1.224 0.049,1.284 0,0.061 -0.025,0.086 -0.121,0.086 -0.098,0 -0.195,0.011 -0.425,0.06 -0.303,0.073 -0.655,0.121 -1.127,0.121 -1.54,0 -2.51,-0.885 -2.51,-2.182 0,-0.824 0.291,-1.576 1.576,-2.631 l 0.545,-0.448 c 1.043,-0.861 1.395,-1.346 1.395,-2.183 0,-0.776 -0.57,-1.612 -1.734,-1.612 -0.812,0 -1.612,0.339 -1.794,1.237 -0.037,0.169 -0.037,0.339 -0.037,0.448 0,0.097 -0.011,0.133 -0.084,0.133 -0.061,0 -0.085,-0.06 -0.097,-0.193 -0.012,-0.194 -0.061,-0.68 -0.061,-1.286 0,-0.327 0.012,-0.375 0.182,-0.46 0.497,-0.243 1.055,-0.327 1.624,-0.327"
         style="fill:#002855;fill-opacity:1;fill-rule:nonzero;stroke:none"
         id="path326"
         inkscape:connector-curvature="0" />
    </g>
    <g
       id="g328"
       transform="matrix(1.25,0,0,-1.25,427.47232,551.85832)"
       style="fill:#002855;fill-opacity:1">
      <path
         d="M 0,0 C 0,-0.195 0,-0.703 -0.036,-1.212 -0.061,-1.563 -0.17,-1.83 -0.412,-1.88 -0.522,-1.903 -0.667,-1.927 -0.776,-1.927 L -0.873,-2 c 0,-0.073 0.061,-0.097 0.194,-0.097 0.363,0 1.127,0.036 1.188,0.036 0.061,0 0.824,-0.036 1.491,-0.036 0.134,0 0.194,0.036 0.194,0.097 l -0.097,0.073 c -0.109,0 -0.376,0.024 -0.545,0.047 C 1.188,-1.83 1.079,-1.563 1.055,-1.212 1.018,-0.703 1.018,-0.195 1.018,0 l 0,1.043 c 0,0.4 0,0.776 0.182,1.212 0.219,0.522 1.916,3.37 2.316,3.855 0.266,0.328 0.4,0.473 0.642,0.619 0.194,0.121 0.425,0.17 0.558,0.17 0.097,0 0.158,0.036 0.158,0.096 0,0.049 -0.073,0.073 -0.158,0.073 -0.23,0 -1.103,-0.036 -1.176,-0.036 -0.097,0 -0.485,0.036 -0.8,0.036 -0.121,0 -0.194,-0.024 -0.194,-0.073 0,-0.06 0.073,-0.084 0.182,-0.121 C 2.873,6.838 2.922,6.704 2.922,6.535 2.922,6.377 2.873,6.171 2.716,5.917 2.473,5.517 0.934,2.861 0.703,2.352 c -0.218,0.351 -2.037,3.48 -2.231,3.831 -0.096,0.182 -0.157,0.328 -0.157,0.473 0,0.097 0.061,0.17 0.157,0.218 0.11,0.049 0.182,0.061 0.182,0.109 0,0.049 -0.024,0.085 -0.158,0.085 -0.472,0 -0.933,-0.036 -1.018,-0.036 -0.06,0 -0.97,0.036 -1.2,0.036 -0.109,0 -0.157,-0.036 -0.157,-0.085 l 0.12,-0.084 c 0.109,0 0.34,-0.073 0.522,-0.195 C -3.019,6.559 -2.716,6.256 -2.413,5.807 -1.988,5.177 -0.364,2.51 -0.278,2.316 -0.122,1.964 0,1.697 0,1.043 L 0,0 M -7.177,6.547 -5.65,6.523 C -4.486,6.498 -4.207,6.22 -4.159,5.856 l 0.013,-0.134 c 0.012,-0.169 0.036,-0.205 0.097,-0.205 0.048,0 0.084,0.048 0.084,0.157 0,0.133 0.037,0.97 0.037,1.333 l -0.061,0.146 c -0.048,0 -0.157,-0.024 -0.339,-0.061 -0.194,-0.024 -0.473,-0.06 -0.861,-0.06 l -4.546,0 c -0.146,0 -0.607,0.024 -0.958,0.06 -0.327,0.025 -0.449,0.146 -0.534,0.146 l -0.12,-0.231 c -0.025,-0.096 -0.268,-1.139 -0.268,-1.26 0,-0.073 0.025,-0.109 0.061,-0.109 0.049,0 0.085,0.023 0.121,0.121 0.036,0.085 0.073,0.17 0.206,0.376 0.194,0.291 0.486,0.376 1.237,0.388 l 1.794,0.024 0,-5.129 c 0,-1.163 0,-2.121 -0.06,-2.63 -0.049,-0.351 -0.11,-0.618 -0.352,-0.668 -0.109,-0.023 -0.254,-0.047 -0.364,-0.047 L -9.068,-2 c 0,-0.073 0.06,-0.097 0.193,-0.097 0.364,0 1.128,0.036 1.189,0.036 0.06,0 0.824,-0.036 1.491,-0.036 0.134,0 0.194,0.036 0.194,0.097 l -0.097,0.073 c -0.11,0 -0.375,0.024 -0.545,0.047 -0.364,0.05 -0.437,0.317 -0.474,0.668 -0.06,0.509 -0.06,1.467 -0.06,2.63 l 0,5.129 z m -6.026,-2.994 c 0,1.891 0,2.23 0.023,2.618 0.025,0.425 0.122,0.63 0.45,0.691 0.145,0.024 0.217,0.037 0.302,0.037 l 0.098,0.072 c 0,0.073 -0.061,0.097 -0.195,0.097 -0.363,0 -1.127,-0.036 -1.187,-0.036 -0.061,0 -0.825,0.036 -1.225,0.036 -0.134,0 -0.195,-0.024 -0.195,-0.097 l 0.098,-0.072 c 0.085,0 0.242,-0.013 0.376,-0.049 0.266,-0.061 0.387,-0.267 0.412,-0.679 0.024,-0.388 0.024,-0.727 0.024,-2.618 l 0,-2.135 c 0,-1.163 0,-2.121 -0.061,-2.63 -0.049,-0.351 -0.109,-0.618 -0.351,-0.668 -0.109,-0.023 -0.254,-0.047 -0.364,-0.047 L -15.095,-2 c 0,-0.073 0.061,-0.097 0.194,-0.097 0.364,0 1.128,0.036 1.189,0.036 0.06,0 0.824,-0.036 1.49,-0.036 0.134,0 0.195,0.036 0.195,0.097 l -0.098,0.073 c -0.108,0 -0.375,0.024 -0.545,0.047 -0.364,0.05 -0.436,0.317 -0.473,0.668 -0.06,0.509 -0.06,1.467 -0.06,2.63 l 0,2.135 z m -5.875,-5.82 c 0.655,0 1.309,0.146 1.831,0.509 0.837,0.595 1.03,1.516 1.03,2.013 0,0.969 -0.34,1.722 -1.769,2.849 l -0.34,0.266 c -1.14,0.934 -1.479,1.346 -1.479,2.037 0,0.885 0.654,1.407 1.491,1.407 1.115,0 1.443,-0.51 1.516,-0.643 0.072,-0.133 0.145,-0.461 0.158,-0.606 0.011,-0.096 0.023,-0.158 0.096,-0.158 0.06,0 0.085,0.085 0.085,0.279 0,0.825 0.049,1.225 0.049,1.285 0,0.061 -0.025,0.085 -0.122,0.085 -0.097,0 -0.194,0.012 -0.425,0.061 -0.302,0.072 -0.654,0.121 -1.127,0.121 -1.539,0 -2.509,-0.885 -2.509,-2.182 0,-0.825 0.291,-1.577 1.576,-2.631 l 0.545,-0.448 c 1.043,-0.862 1.395,-1.346 1.395,-2.183 0,-0.776 -0.57,-1.612 -1.734,-1.612 -0.812,0 -1.613,0.339 -1.794,1.236 -0.037,0.17 -0.037,0.34 -0.037,0.448 0,0.098 -0.011,0.134 -0.085,0.134 -0.06,0 -0.084,-0.061 -0.097,-0.195 -0.012,-0.192 -0.06,-0.678 -0.06,-1.284 0,-0.328 0.012,-0.376 0.181,-0.461 0.498,-0.242 1.055,-0.327 1.625,-0.327 m -9.001,8.729 c 0,0.073 0.036,0.121 0.097,0.145 0.121,0.037 0.448,0.073 0.812,0.073 1.298,0 2.097,-0.909 2.097,-2.425 0,-0.921 -0.315,-1.575 -0.739,-1.866 -0.279,-0.195 -0.618,-0.231 -0.91,-0.231 -0.533,0 -1.091,0.085 -1.272,0.194 l -0.085,0.145 0,3.965 z m -0.97,-5.044 c 0,-1.163 0,-2.121 -0.061,-2.63 -0.048,-0.351 -0.109,-0.618 -0.351,-0.668 -0.109,-0.023 -0.255,-0.047 -0.364,-0.047 L -29.922,-2 c 0,-0.073 0.061,-0.097 0.194,-0.097 0.364,0 1.128,0.036 1.14,0.036 0.061,0 0.824,-0.036 1.491,-0.036 0.133,0 0.194,0.036 0.194,0.097 L -27,-1.927 c -0.109,0 -0.376,0.024 -0.545,0.047 -0.365,0.05 -0.437,0.317 -0.474,0.668 -0.06,0.509 -0.06,1.467 -0.06,2.63 l 0,0.291 0.085,0.098 1.491,-0.025 0.157,-0.073 c 0.243,-0.315 0.813,-1.127 1.322,-1.794 0.691,-0.909 1.115,-1.503 1.636,-1.782 0.316,-0.169 0.619,-0.23 1.298,-0.23 l 0.86,0 c 0.219,0 0.291,0.024 0.291,0.097 l -0.108,0.073 c -0.073,0 -0.243,0 -0.473,0.036 -0.304,0.048 -0.825,0.182 -1.479,0.873 -0.704,0.751 -1.528,1.83 -2.522,3.103 1.091,1.007 1.467,1.904 1.467,2.801 0,0.836 -0.533,1.43 -0.837,1.649 -0.642,0.46 -1.455,0.533 -2.218,0.533 -0.376,0 -1.298,-0.036 -1.431,-0.036 -0.06,0 -0.824,0.036 -1.37,0.036 -0.133,0 -0.194,-0.024 -0.194,-0.097 l 0.097,-0.072 c 0.109,0 0.315,-0.013 0.412,-0.037 0.4,-0.085 0.498,-0.279 0.521,-0.691 0.025,-0.388 0.025,-0.727 0.025,-2.618 l 0,-2.135 z m -6.274,0 c 0,-1.163 0,-2.121 -0.062,-2.63 -0.047,-0.351 -0.108,-0.618 -0.35,-0.668 -0.109,-0.023 -0.255,-0.047 -0.364,-0.047 L -36.196,-2 c 0,-0.073 0.06,-0.097 0.194,-0.097 0.181,0 0.461,0.011 0.703,0.024 0.255,0 0.46,0.012 0.485,0.012 0.351,0 1.164,-0.072 2.994,-0.072 0.473,0 0.57,0 0.655,0.315 0.061,0.255 0.157,1.078 0.157,1.176 0,0.085 0,0.181 -0.072,0.181 -0.061,0 -0.085,-0.048 -0.109,-0.181 -0.085,-0.498 -0.231,-0.74 -0.546,-0.873 -0.315,-0.134 -0.849,-0.134 -1.164,-0.134 -1.188,0 -1.37,0.158 -1.406,0.995 -0.012,0.254 0,1.66 0,2.072 l 0,1.067 0.085,0.085 c 0.206,0 1.407,-0.024 1.733,-0.06 0.473,-0.049 0.583,-0.255 0.631,-0.425 0.048,-0.158 0.048,-0.278 0.048,-0.4 l 0.085,-0.109 c 0.085,0 0.085,0.133 0.085,0.231 0,0.084 0.024,0.533 0.049,0.776 0.036,0.4 0.097,0.606 0.097,0.678 l -0.061,0.097 c -0.048,0 -0.097,-0.06 -0.182,-0.157 -0.109,-0.121 -0.279,-0.146 -0.57,-0.17 -0.279,-0.025 -1.77,-0.025 -1.927,-0.025 -0.06,0 -0.073,0.037 -0.073,0.122 l 0,3.346 c 0,0.085 0.024,0.122 0.073,0.122 0.133,0 1.454,-0.013 1.661,-0.037 0.654,-0.073 0.776,-0.218 0.86,-0.412 0.061,-0.145 0.073,-0.352 0.073,-0.437 0,-0.096 0.024,-0.157 0.097,-0.157 l 0.085,0.133 c 0.024,0.146 0.048,0.679 0.061,0.8 0.036,0.34 0.097,0.485 0.097,0.57 l -0.049,0.11 -0.17,-0.062 c -0.097,-0.024 -0.291,-0.048 -0.52,-0.06 -0.28,-0.012 -2.692,-0.012 -2.777,-0.012 -0.061,0 -0.824,0.036 -1.371,0.036 -0.133,0 -0.193,-0.024 -0.193,-0.097 l 0.097,-0.072 c 0.109,0 0.315,-0.013 0.412,-0.037 0.401,-0.085 0.497,-0.279 0.521,-0.691 0.025,-0.388 0.025,-0.727 0.025,-2.618 l 0,-2.135 z m -8.351,4.171 c -0.182,0.473 -0.327,0.849 -0.327,1.007 0,0.084 0.024,0.181 0.157,0.242 0.11,0.048 0.328,0.061 0.461,0.061 0.085,0 0.121,0.024 0.121,0.084 0,0.061 -0.109,0.085 -0.327,0.085 -0.461,0 -1.006,-0.036 -1.128,-0.036 -0.145,0 -0.836,0.036 -1.418,0.036 -0.194,0 -0.316,-0.012 -0.316,-0.085 0,-0.048 0.025,-0.084 0.097,-0.084 0.074,0 0.28,0 0.461,-0.049 0.425,-0.121 0.606,-0.254 0.873,-0.933 l 2.971,-7.432 c 0.23,-0.582 0.291,-0.752 0.436,-0.752 0.121,0 0.17,0.194 0.509,0.921 0.279,0.595 0.824,1.904 1.564,3.673 0.618,1.491 1.224,2.947 1.358,3.287 0.327,0.824 0.509,1.03 0.667,1.139 0.23,0.146 0.497,0.146 0.581,0.146 0.098,0 0.146,0.024 0.146,0.084 0,0.061 -0.072,0.085 -0.206,0.085 -0.352,0 -0.872,-0.036 -0.945,-0.036 -0.146,0 -0.703,0.036 -1.189,0.036 -0.194,0 -0.267,-0.024 -0.267,-0.097 l 0.134,-0.072 c 0.133,0 0.316,0 0.461,-0.049 0.121,-0.061 0.158,-0.182 0.158,-0.279 0,-0.109 -0.049,-0.279 -0.11,-0.461 -0.267,-0.872 -1.891,-5.104 -2.594,-6.728 l -2.328,6.207 z m -4.168,-2.036 c 0,1.891 0,2.23 0.024,2.618 0.025,0.425 0.122,0.63 0.449,0.691 0.145,0.024 0.218,0.037 0.303,0.037 l 0.097,0.072 c 0,0.073 -0.061,0.097 -0.194,0.097 -0.364,0 -1.128,-0.036 -1.188,-0.036 -0.061,0 -0.825,0.036 -1.225,0.036 -0.133,0 -0.193,-0.024 -0.193,-0.097 l 0.096,-0.072 c 0.085,0 0.243,-0.013 0.376,-0.049 0.267,-0.061 0.388,-0.267 0.412,-0.679 0.025,-0.388 0.025,-0.727 0.025,-2.618 l 0,-2.135 c 0,-1.163 0,-2.121 -0.061,-2.63 -0.049,-0.351 -0.109,-0.618 -0.352,-0.668 -0.109,-0.023 -0.254,-0.047 -0.363,-0.047 L -49.733,-2 c 0,-0.073 0.06,-0.097 0.193,-0.097 0.364,0 1.128,0.036 1.189,0.036 0.06,0 0.824,-0.036 1.491,-0.036 0.133,0 0.194,0.036 0.194,0.097 l -0.097,0.073 c -0.109,0 -0.376,0.024 -0.546,0.047 -0.364,0.05 -0.436,0.317 -0.472,0.668 -0.061,0.509 -0.061,1.467 -0.061,2.63 l 0,2.135 z m -11.27,1.806 c 0.388,-0.437 1.758,-1.964 3.164,-3.48 1.285,-1.382 3.031,-3.164 3.164,-3.286 0.643,-0.642 0.789,-0.775 0.886,-0.775 0.085,0 0.109,0.061 0.109,0.861 l 0.024,7.104 c 0,0.728 0.049,0.994 0.449,1.079 0.145,0.037 0.23,0.037 0.29,0.037 0.086,0 0.134,0.036 0.134,0.084 0,0.073 -0.085,0.085 -0.218,0.085 -0.497,0 -0.898,-0.036 -1.031,-0.036 -0.133,0 -0.715,0.036 -1.261,0.036 -0.145,0 -0.242,-0.012 -0.242,-0.085 0,-0.048 0.012,-0.084 0.097,-0.084 0.097,0 0.376,-0.013 0.594,-0.061 0.376,-0.097 0.46,-0.364 0.473,-1.152 l 0.133,-6.159 c -0.388,0.4 -1.71,1.88 -2.91,3.164 -1.867,2.001 -3.673,3.953 -3.855,4.159 -0.121,0.121 -0.327,0.388 -0.424,0.388 -0.097,0 -0.134,-0.134 -0.134,-0.606 l -0.012,-6.947 c 0,-1.103 -0.06,-1.455 -0.363,-1.54 -0.182,-0.06 -0.401,-0.072 -0.498,-0.072 L -60.639,-2 c 0,-0.086 0.072,-0.097 0.193,-0.097 0.546,0 1.055,0.036 1.164,0.036 0.11,0 0.595,-0.036 1.285,-0.036 0.146,0 0.219,0.024 0.219,0.097 l -0.097,0.073 c -0.109,0 -0.376,0.012 -0.606,0.072 -0.328,0.097 -0.449,0.412 -0.473,1.407 l -0.158,5.807 z m -9.79,-3.577 c 0,-1.77 0.461,-2.619 1.055,-3.189 0.861,-0.812 2.085,-0.86 2.498,-0.86 0.715,0 1.624,0.121 2.497,0.897 0.97,0.861 1.116,2.316 1.116,3.625 l 0,1.298 c 0,1.891 0,2.23 0.023,2.618 0.025,0.425 0.122,0.63 0.449,0.691 0.146,0.037 0.218,0.037 0.303,0.037 l 0.098,0.072 c 0,0.073 -0.061,0.097 -0.195,0.097 -0.364,0 -0.933,-0.036 -1.018,-0.036 -0.073,0 -0.739,0.036 -1.285,0.036 -0.134,0 -0.194,-0.024 -0.194,-0.097 l 0.097,-0.072 c 0.109,0 0.315,-0.013 0.412,-0.037 0.4,-0.085 0.497,-0.279 0.521,-0.691 C -62.5,5.783 -62.5,5.444 -62.5,3.553 l 0,-1.516 c 0,-1.249 -0.146,-2.279 -0.703,-2.971 -0.437,-0.521 -1.164,-0.873 -1.904,-0.873 -0.691,0 -1.237,0.11 -1.83,0.667 -0.522,0.498 -0.91,1.249 -0.91,2.995 l 0,1.698 c 0,1.891 0,2.23 0.024,2.618 0.025,0.425 0.122,0.643 0.449,0.691 0.146,0.024 0.218,0.037 0.303,0.037 l 0.097,0.072 c 0,0.073 -0.061,0.097 -0.194,0.097 -0.363,0 -1.091,-0.036 -1.2,-0.036 -0.109,0 -0.849,0.036 -1.394,0.036 -0.134,0 -0.194,-0.024 -0.194,-0.097 l 0.096,-0.072 c 0.11,0 0.316,-0.013 0.413,-0.037 0.4,-0.085 0.497,-0.279 0.521,-0.691 0.024,-0.388 0.024,-0.727 0.024,-2.618 l 0,-1.771 z"
         style="fill:#002855;fill-opacity:1;fill-rule:nonzero;stroke:none"
         id="path330"
         inkscape:connector-curvature="0" />
    </g>
  </g>
</svg>
